<mxfile host="app.diagrams.net" modified="2022-11-10T02:55:39.122Z" agent="5.0 (Windows NT 10.0; Win64; x64) AppleWebKit/537.36 (KHTML, like Gecko) Chrome/107.0.0.0 Safari/537.36 Edg/107.0.1418.35" etag="T06hu95kctmYp6UZJwO9" version="20.5.3" type="github">
  <diagram id="s8mPx5vmbpfFlzZVRqw6" name="Page-1">
    <mxGraphModel dx="1229" dy="800" grid="1" gridSize="10" guides="1" tooltips="1" connect="1" arrows="1" fold="1" page="1" pageScale="1" pageWidth="850" pageHeight="1100" math="0" shadow="0">
      <root>
        <mxCell id="0" />
        <mxCell id="1" parent="0" />
        <mxCell id="KpDvIMnTJKgCGnLYI3fn-1" value="User" style="shape=umlActor;verticalLabelPosition=bottom;verticalAlign=top;html=1;" vertex="1" parent="1">
          <mxGeometry x="410" y="180" width="30" height="60" as="geometry" />
        </mxCell>
        <mxCell id="KpDvIMnTJKgCGnLYI3fn-3" value="Xem thông tin" style="ellipse;whiteSpace=wrap;html=1;" vertex="1" parent="1">
          <mxGeometry x="350" y="380" width="140" height="70" as="geometry" />
        </mxCell>
        <mxCell id="KpDvIMnTJKgCGnLYI3fn-4" value="" style="endArrow=classic;html=1;rounded=0;exitX=0.5;exitY=0.5;exitDx=0;exitDy=0;exitPerimeter=0;entryX=0.5;entryY=0;entryDx=0;entryDy=0;" edge="1" parent="1" source="KpDvIMnTJKgCGnLYI3fn-1" target="KpDvIMnTJKgCGnLYI3fn-3">
          <mxGeometry width="50" height="50" relative="1" as="geometry">
            <mxPoint x="400" y="440" as="sourcePoint" />
            <mxPoint x="450" y="390" as="targetPoint" />
          </mxGeometry>
        </mxCell>
        <mxCell id="KpDvIMnTJKgCGnLYI3fn-5" value="&amp;lt;&amp;lt;extend&amp;gt;&amp;gt;" style="html=1;verticalAlign=bottom;labelBackgroundColor=none;endArrow=open;endFill=0;dashed=1;rounded=0;exitX=0;exitY=1;exitDx=0;exitDy=0;" edge="1" parent="1" source="KpDvIMnTJKgCGnLYI3fn-3" target="KpDvIMnTJKgCGnLYI3fn-6">
          <mxGeometry width="160" relative="1" as="geometry">
            <mxPoint x="340" y="410" as="sourcePoint" />
            <mxPoint x="500" y="410" as="targetPoint" />
          </mxGeometry>
        </mxCell>
        <mxCell id="KpDvIMnTJKgCGnLYI3fn-6" value="Thay đổi" style="ellipse;whiteSpace=wrap;html=1;" vertex="1" parent="1">
          <mxGeometry x="210" y="610" width="140" height="70" as="geometry" />
        </mxCell>
        <mxCell id="KpDvIMnTJKgCGnLYI3fn-7" value="Xoá" style="ellipse;whiteSpace=wrap;html=1;" vertex="1" parent="1">
          <mxGeometry x="490" y="610" width="140" height="70" as="geometry" />
        </mxCell>
        <mxCell id="KpDvIMnTJKgCGnLYI3fn-8" value="&amp;lt;&amp;lt;extend&amp;gt;&amp;gt;" style="html=1;verticalAlign=bottom;labelBackgroundColor=none;endArrow=open;endFill=0;dashed=1;rounded=0;exitX=1;exitY=1;exitDx=0;exitDy=0;entryX=0.5;entryY=0;entryDx=0;entryDy=0;" edge="1" parent="1" source="KpDvIMnTJKgCGnLYI3fn-3" target="KpDvIMnTJKgCGnLYI3fn-7">
          <mxGeometry width="160" relative="1" as="geometry">
            <mxPoint x="380.5025253169417" y="449.74873734152925" as="sourcePoint" />
            <mxPoint x="305.0085106389665" y="620.8139479890215" as="targetPoint" />
          </mxGeometry>
        </mxCell>
      </root>
    </mxGraphModel>
  </diagram>
</mxfile>
